<svg xmlns="http://www.w3.org/2000/svg" viewBox="0 0 1000 1000" xml:space="preserve"><g fill="currentColor"><path d="M500 10C229.4 10 10 229.4 10 500s219.4 490 490 490 490-219.4 490-490c0-270.7-219.4-490-490-490zm132.9 779.7c-31.2 0-60.3-8.9-85.1-24.3-15.9 2.9-32.3 4.5-49.1 4.5-149.1 0-270-120.2-270-268.6 0-14.4 1.2-28.5 3.4-42.3-16.5-25.2-26-55.4-26-87.7 0-89 72.1-161.1 161.1-161.1 32.5 0 62.6 9.6 88 26.2 14.1-2.3 28.7-3.6 43.5-3.6 149.1 0 270 120.3 270 268.6 0 12.4-.9 24.5-2.5 36.4 17.7 25.9 28 57.1 28 90.7-.2 89.1-72.3 161.2-161.3 161.2z"/><path d="M464.7 449.7c-78-19-35.3-85.7 27.9-84.8 61.4 1 92.6 65.8 120.4 62.4 27.9-3.4 51.6-45.1 7.8-82.4-37.8-32.3-85.7-50.2-159.4-43.5-57.7 5.2-112.5 42.4-119.3 114.8-6.7 72.5 79.2 109.3 147.2 119.4 47.7 7 112.6 30.1 73.5 74.7-35.8 41-103.6 15.6-121.5 4.5-17.8-11.3-37.9-51.3-71.4-49.2-33.5 2.3-50 46.2-8.9 84.8 36.8 34.5 76.9 53.5 162.7 49 85.9-4.5 162.8-80.2 132.7-151.7-30-71.3-113.6-79.1-191.7-98z"/></g></svg>